<svg xmlns="http://www.w3.org/2000/svg" version="1.1" xmlns:xlink="http://www.w3.org/1999/xlink" viewBox="0 0 6.8265647255516 2.880564882325094"><g transform="matrix(1,0,0,1,0.36263134966771604,0.9265324411625471)"><g clip-path="url(#SvgjsClipPath1001)"><g clip-path="url(#SvgjsClipPath1000390e4034-3477-4aa1-8183-a53fcd849c9a)"><path d=" M 5.348216259102433 1.1400070276689784 L 5.342897695818842 1.1412606890143957 C 5.337793301466009 1.1424513234513387 5.332831325146421 1.1441859773905794 5.328096893995366 1.1464348912945743 C 5.310541702072267 1.1560234033189067 5.294637427460076 1.1683646073768497 5.280989619197852 1.182988616947935 C 5.271545370395706 1.1921669375859028 5.261386914524048 1.2029180333663039 5.24934416766049 1.214611274642654 C 5.243311397307389 1.2204540963070558 5.236716378835737 1.2264944646077043 5.229353967661739 1.2326488021215734 C 5.221172955283077 1.2394644290102206 5.212288912744084 1.2453888220565794 5.202852326614363 1.2503216281181888 C 5.1808864024737655 1.2610609836252573 5.15671682084415 1.2665245058450845 5.132267393893573 1.2662773179689595 C 5.106421175693649 1.2661040110261608 5.08073008586199 1.2622668473551968 5.055961206669148 1.2548803966469813 C 5.030006389527535 1.247193926835673 5.004618463850713 1.2377089978028122 4.979981731189287 1.2264944646077043 C 4.967483107472851 1.2202869414610005 4.95446782332315 1.2141553977897752 4.9415969001768625 1.2072716573113005 C 4.929083080565329 1.199924442032398 4.916120982048465 1.1925696288059477 4.903272852744821 1.1845917838805622 C 4.849401294790818 1.1497198597077143 4.8000876465212 1.1082674006451985 4.756472908170182 1.0611935177537202 C 4.7084294798437885 1.009564776102949 4.666181510540184 0.9528324439063884 4.630483741929477 0.892010019702713 C 4.625598261656122 0.8842525152562193 4.6214497822949205 0.8760543298519419 4.616929003503869 0.8680005054510771 C 4.612529791873586 0.8598858974698282 4.607963425397245 0.8518016812787712 4.603693378875278 0.8435199184514661 L 4.591316322319608 0.8183327223298924 L 4.585131593015547 0.8056365519772068 L 4.57942553440701 0.7926364637226024 L 4.568028613085031 0.7664463385246945 C 4.564457577737477 0.7575795337361946 4.56109168697372 0.7485683679442836 4.557634620839386 0.7395723980474678 L 4.5524908103494 0.7260252575694086 C 4.550796468046198 0.7214664890406164 4.549223692903765 0.7164974313442334 4.547597732128496 0.7117411161791947 C 4.544247037259835 0.702144908426088 4.541519374090107 0.692381545826926 4.538639751969421 0.6826257811753118 C 4.517218720139948 0.6063322865564433 4.509870663525651 0.5267755418536464 4.5169552096674686 0.4478492019425431 C 4.520372844678928 0.4097648838328687 4.527827763105969 0.3721515475395518 4.539194402140424 0.3356427125538841 C 4.550161783906663 0.29981532813580314 4.565582000568535 0.26550592039665155 4.585093603277808 0.23351869956140392 C 4.604037978126853 0.2026544330263682 4.6272486938887445 0.17462200697010144 4.654037379328233 0.1502527923830249 C 4.679202646619746 0.12746771423716718 4.707513602028358 0.10841974315422154 4.738101070999151 0.09369367083581603 C 4.766151819178509 0.08020532473666608 4.795792550579036 0.07031061498656321 4.826320839978817 0.06424402613982172 C 4.854201884816281 0.0592584902873432 4.882579802743106 0.05763106452219091 4.910848006450163 0.059396535604207656 C 4.957153258073345 0.06319056617990237 5.002516104522863 0.07459352944903108 5.045111337570624 0.09314661861236118 C 5.0760232236583915 0.10656202766734602 5.105558453822845 0.12294928382820414 5.1333007147600975 0.14207740082139075 C 5.139052361053924 0.14577760127726092 5.144188573596363 0.14972853400221342 5.149081651817266 0.15328437345467094 C 5.153974730038168 0.15684021290712902 5.158548694462056 0.1601225262478585 5.162613596400229 0.1634428293263286 C 5.17075859617167 0.1700758375357203 5.177710718178077 0.17547038029479034 5.18305967325186 0.1802039016171858 L 5.199250899476618 0.1946400019583594 L 5.179686184540554 0.18545408337284375 C 5.1733191044953415 0.18241490435365004 5.165181702671449 0.17914018896046768 5.155821031292329 0.17500690549436326 C 5.151148293550318 0.17293266581376265 5.145943699479948 0.17107876661205457 5.140457981350302 0.16889055771823414 C 5.134972263220655 0.16670234882441426 5.129228214874378 0.16433178918944236 5.12292191840955 0.162287941299034 C 5.093192788839519 0.151404944883613 5.062619601900682 0.14298340540100096 5.031511011459729 0.13710834312500786 C 4.992171066006286 0.1295945559078986 4.951939629434825 0.12791003250579758 4.912109265743129 0.13210889363843348 C 4.890420121194056 0.13495449942521676 4.869105981380007 0.1401569227458347 4.848544836556677 0.14762390253142066 C 4.8432870568534705 0.14943221404784157 4.838287607366896 0.15208389774208864 4.833113405086717 0.15421892100307244 C 4.83053770086795 0.15537380903036646 4.827961996649182 0.15639193400179674 4.825371096535319 0.15763799739966622 L 4.817583200298634 0.16179407470841456 C 4.812287583331259 0.1644336704529621 4.80713183930094 0.1673450300923165 4.802136572933577 0.17051651849350358 C 4.797121927551907 0.17369246056856102 4.791879343743797 0.17654169089905614 4.787138224473853 0.18018870572208912 C 4.746104703947189 0.2086694738103062 4.713432357935916 0.2476034729672184 4.692505787763687 0.2929574432292984 C 4.647677897230569 0.3881065403727284 4.644213233148687 0.5193154965789 4.678745904754284 0.6434051759326087 C 4.681025289018679 0.6510942988511701 4.683122322541924 0.658859401245212 4.685713222655787 0.6663585754750738 C 4.686989677843849 0.6701575492490672 4.688076184343211 0.6738577497049361 4.68951219642978 0.6777554967970532 L 4.693820232689488 0.6895247175488837 C 4.696677060967531 0.6973556688216747 4.699521225999661 0.7051688915501875 4.702352727785876 0.712964385734421 L 4.711660213532159 0.735993764752366 L 4.716218982060951 0.747474263497373 L 4.72124122539017 0.7587344217634879 L 4.731118557202552 0.7811939547153348 C 4.734530035651598 0.788594355627074 4.738199844317275 0.7958351996403044 4.741679704294253 0.8031368272339192 C 4.745281131431998 0.8103776712471495 4.7484798673497 0.8178084639490801 4.752385212389365 0.8248137715883233 C 4.780478155541861 0.8797863636816057 4.813137427714164 0.9323029816501884 4.8500188383809855 0.9818101617723594 C 4.883195755043521 1.02652906322263 4.92087654519487 1.06772333245566 4.962468462091178 1.1047449530987725 C 4.972345793903561 1.113178674877038 4.9823674867193555 1.1211261280122313 4.992100457528325 1.1292635298361244 C 5.002076562658831 1.1368614773841104 5.012212224687844 1.1438743829709017 5.022005979077199 1.1511304228792287 C 5.041082895830582 1.1641408995494353 5.060901521380252 1.1760290305435164 5.081361145322066 1.1867344050890916 C 5.098911559307811 1.1959977785656377 5.117602872396938 1.2029153781071649 5.13695532753068 1.2073096470490376 C 5.1453498988920465 1.2091020728243795 5.153901304183994 1.210059015797526 5.162484431291913 1.2101664753270822 C 5.166506742997745 1.2102009840408314 5.170527689746303 1.2100031077970532 5.174527178155471 1.2095738354183396 C 5.178300085892685 1.209197056433022 5.182038908759558 1.2085341265632836 5.185711356946107 1.207590771108315 C 5.200918843970523 1.2030502121967905 5.215414898732463 1.1964006457922314 5.228776523648092 1.1878361074835513 C 5.242521210762399 1.179774685135138 5.255293360590563 1.1716752730489854 5.267237334135997 1.1648675120459895 C 5.2853355243234645 1.153396688817974 5.305287610356228 1.1451546597210747 5.326205005055917 1.1405084922071456 C 5.331660983800642 1.1395998646781462 5.3372031146221195 1.1393194440754035 5.3427229430252385 1.1396727179768673 Z" fill="#bd2949" transform="matrix(1,0,0,1,0,0)" fill-rule="nonzero"></path></g><g clip-path="url(#SvgjsClipPath1000390e4034-3477-4aa1-8183-a53fcd849c9a)"><path d=" M 5.194190666409659 0.0454467039061045 L 5.191911282145264 0.0241040692438117 C 5.191538982715413 0.020692590794765597 5.1911514873904645 0.016924008810964453 5.190695610537586 0.012821117135052185 C 5.190102970628843 0.00873848665260113 5.189467275683994 0.004331677074769225 5.188788525703041 -0.0003993115984436413 C 5.187420895144403 -0.009843560400590534 5.186007676900479 -0.020556666443250826 5.183690302898342 -0.032105546716189926 C 5.182618992294076 -0.03790278069530284 5.181494496056974 -0.04395074694350032 5.180339608029681 -0.05020385777549263 C 5.179055554894071 -0.05644177271238937 5.177490377699186 -0.06283164660024532 5.176001179979781 -0.06944945891454152 C 5.173227929124765 -0.08275346507106496 5.169163027186593 -0.09649055423782399 5.165212094461641 -0.11083547920842163 C 5.15641886901819 -0.14090808340270022 5.145299932021066 -0.170251204548184 5.1319558780441055 -0.19859937133520972 C 5.106567027300714 -0.25363937059191116 5.070676673110728 -0.30319314597287883 5.026298819441811 -0.3444799642565418 C 5.016527858895101 -0.35257177839514664 5.007577476683573 -0.35999497314952844 4.999645219443476 -0.3665747957260847 C 4.991234291507855 -0.3725543804463496 4.9837427152255405 -0.3776222114608567 4.977611171554316 -0.38187706208772887 L 4.9693598005172035 -0.3875071412207864 L 4.962969926629347 -0.3911389601487238 L 4.957651363345756 -0.3941781391679181 C 4.945927730279214 -0.4007731576395699 4.929538957418208 -0.390500732554693 4.921743463233975 -0.37144508010434385 C 4.913993556735028 -0.3525641804475983 4.915665105195586 -0.3334553423644131 4.9257019939064755 -0.32965636859042036 L 4.930443113176419 -0.3278328611789033 L 4.9361719656276 -0.3256522502326318 L 4.943557170644243 -0.32199003951450217 L 4.9636613398562135 -0.31204432617418815 L 4.988666185236636 -0.29684843107821607 L 5.002228521609791 -0.2868799238952582 C 5.007211995912424 -0.28345114377647185 5.012010481221167 -0.2797609766917884 5.016603838370581 -0.2758249102129389 C 5.026773163765545 -0.2674455568898249 5.036477515581128 -0.25851735030570294 5.045673585689176 -0.2490801348440272 C 5.055743022663414 -0.23895911276416754 5.0652980677484765 -0.22833901488299985 5.074302652049987 -0.2172599305130633 C 5.0789905856870945 -0.21161465548490854 5.083177054786034 -0.2054755138661361 5.087705431524634 -0.19953391888361066 L 5.094422017157054 -0.19051515514415096 L 5.100583952618471 -0.18105571044690794 C 5.117030972434803 -0.156176370337124 5.1315110451733155 -0.13005127068048045 5.143892253641992 -0.10291841786341877 C 5.149681889673557 -0.08975877271030736 5.155524711337958 -0.07708539620026694 5.160060686024106 -0.06460196837892573 C 5.162431245659078 -0.05840964112731728 5.164862588874433 -0.052407262564407975 5.166990014187869 -0.046534049109814624 L 5.172817639957175 -0.029385481494010213 C 5.1767229849968395 -0.018414045234718013 5.179655792750362 -0.008111228359648948 5.182315074392157 0.000937927170001851 L 5.18611404816615 0.013679685207974912 C 5.187127107839215 0.01765594442475449 5.1880641880368 0.02129536130023968 5.188925288758905 0.02459793583443104 C 5.192253189784923 0.03789434404340619 5.194190666409659 0.0454467039061045 5.194190666409659 0.0454467039061045 Z" fill="#002027" transform="matrix(1,0,0,1,0,0)" fill-rule="nonzero"></path></g><g clip-path="url(#SvgjsClipPath1000390e4034-3477-4aa1-8183-a53fcd849c9a)"><path d=" M 5.466903797749524 -0.39021960849541726 C 5.466903797749524 -0.39021960849541726 5.465027104705171 -0.38879879230394354 5.461380089882137 -0.38606353118666886 C 5.457733075059104 -0.38332827006939363 5.45220176924417 -0.37949130655766095 5.4455611630872305 -0.3737092684736436 C 5.42611787177968 -0.3577385160837441 5.408570934166402 -0.33958994004583576 5.393264490114443 -0.3196194798795309 C 5.369952002270805 -0.288942610214972 5.351892015788419 -0.2546096361969925 5.339820527061908 -0.21801972526786062 C 5.332339451951859 -0.1957441534697057 5.326790185837779 -0.17286582317803123 5.323234207564655 -0.14963819733598627 C 5.32226926822606 -0.14352184955985714 5.321471483733522 -0.13729913051805653 5.320749678716464 -0.13100802994832378 L 5.320263410073392 -0.12626691067838058 L 5.320012677804309 -0.123888753095861 C 5.319957250230043 -0.12341728270047142 5.319934402186218 -0.12294255112319907 5.319944296276377 -0.12246793690438729 C 5.319944296276377 -0.12100153302762645 5.319883512695993 -0.11942875788519303 5.319944296276377 -0.11819029243487134 C 5.319997481909213 -0.115584196425912 5.320164636755268 -0.11313005936791248 5.3203773792866125 -0.11083547920842052 L 5.320780070506656 -0.10751517612995104 L 5.321045998670835 -0.10594240098751756 L 5.3211903596742465 -0.10518260623271913 C 5.3212359473595345 -0.10507623496704704 5.3211903596742465 -0.1048786883307995 5.321319524782562 -0.10485589448815563 L 5.321843783163374 -0.10496986370137495 C 5.325348969632177 -0.10569420136761659 5.328570499392524 -0.10645399612241502 5.331508372444412 -0.10724924796577079 L 5.335710037438448 -0.1084497236783531 L 5.337731091486212 -0.10908035332483618 C 5.337980852821309 -0.10915900839553416 5.338234443654268 -0.10922494201210375 5.3384908862410105 -0.10927789996108311 L 5.340139640858924 -0.10961980760074325 L 5.34343715009475 -0.110296024932514 C 5.361302573029167 -0.1140388026527922 5.378957099389957 -0.11872571038368412 5.39632646297628 -0.12433703200119206 C 5.43199946180051 -0.13559097621183613 5.465492469450255 -0.1528449498495838 5.495365709264279 -0.17535724978591882 C 5.510118611129865 -0.18694288308399964 5.523449374063308 -0.20023284016189696 5.5350801810976025 -0.2149501544584741 C 5.547087748984151 -0.23039199785774583 5.557375407655707 -0.24709734156982843 5.565760693296371 -0.26476989653061916 C 5.583457130290201 -0.3033601869710366 5.595227236445144 -0.34440058758354936 5.600673262279367 -0.38650421214445163 C 5.603798829207207 -0.4087664604332963 5.605739042015349 -0.43117908864970456 5.606485692153576 -0.45364727462600707 C 5.606660444947179 -0.4592089722311308 5.6068124038981395 -0.46475547394116007 5.606835197740783 -0.47026398591345053 L 5.606835197740783 -0.47851535695056346 L 5.606835197740783 -0.48261824862647584 C 5.606835197740783 -0.48457851909385596 5.606835197740783 -0.4836439715454539 5.606835197740783 -0.48390989970963355 C 5.607028636482481 -0.4842171580557637 5.607172240368524 -0.4845530885748995 5.607260682803471 -0.48490523083841947 C 5.607153121884069 -0.4850505893914589 5.6070190748074396 -0.48517432515450215 5.606865589530975 -0.48526993232072285 L 5.606554073681508 -0.48546747895697095 L 5.606371722940356 -0.48556625227509415 L 5.6062653516746845 -0.4856118399603818 C 5.606424908573191 -0.4856118399603818 5.605133257490034 -0.4856650255932179 5.604510225791099 -0.48569541738341004 C 5.592269932291294 -0.48621967576422104 5.580060030581681 -0.48638683061027693 5.567956500137738 -0.4862500675544127 C 5.544260176420078 -0.48595601127980603 5.520600898751194 -0.48428672061862976 5.497098041305218 -0.4812506180678382 C 5.453717108989323 -0.4762153840764421 5.41143872750657 -0.4641838655492452 5.3719066595570535 -0.44562384201533045 C 5.337261844431123 -0.42898783221808123 5.306904112150866 -0.40461170140869895 5.283177828091672 -0.37437788785786547 C 5.262265513424924 -0.34680670758094945 5.245617228830385 -0.3162481408890362 5.233791169029763 -0.28372677566284343 C 5.22366730810432 -0.256204471834472 5.215827581404227 -0.227895053539809 5.210351500844226 -0.1990856399782785 C 5.205367247252747 -0.17351854647930626 5.202647182030567 -0.15112739505539152 5.200892056146983 -0.13279354762210083 C 5.199136930263398 -0.11445970018881013 5.198544290354655 -0.10012237316576084 5.1982555683478315 -0.0904501859371748 C 5.197966846341008 -0.0807779987085887 5.19807321760668 -0.07566458000879328 5.19807321760668 -0.07566458000879328 C 5.19807321760668 -0.07566458000879328 5.196956319317126 -0.08063363770517612 5.195383544174693 -0.09026023724847448 C 5.19381076903226 -0.09988683679177279 5.191835302669784 -0.11419377202463049 5.19030051726509 -0.13285433120248463 C 5.188467288265976 -0.1556983488175125 5.187959907276352 -0.1786294326435594 5.188780927755493 -0.20153217908873078 C 5.189794409617765 -0.23250868046621387 5.193668102228546 -0.26332526593715383 5.200352601871075 -0.2935889115801281 C 5.208667870070226 -0.3317605837354602 5.223102984395512 -0.3683358689659888 5.243098654776046 -0.40189765387667065 C 5.254901779275502 -0.4212022576481172 5.268960623779393 -0.43903342272915896 5.284978541660545 -0.45501490518464127 C 5.302184322062697 -0.47202601299784364 5.321330946944145 -0.4869546680399315 5.342023931850824 -0.4994932901305523 C 5.386283811359361 -0.5255072994631074 5.434784809787625 -0.5435115943667426 5.485298428763198 -0.5526789229664546 C 5.511642506221133 -0.5577725319020365 5.5382926756774165 -0.5611304532535277 5.565076878017052 -0.5627310075724401 C 5.578677204127946 -0.5635287920649785 5.592429489189801 -0.5639390812325696 5.606310939359972 -0.5638858955997341 L 5.609456489644838 -0.5638858955997341 L 5.614258392495165 -0.5637491325438705 L 5.623884992038463 -0.5634680084845952 C 5.6302520720836755 -0.5631109049498396 5.636740719289656 -0.5628753685758522 5.6430394178069365 -0.5622903266146574 C 5.655765979949813 -0.561219016010391 5.66811264471529 -0.5597754059762741 5.680899990438551 -0.5584913528406641 C 5.682181510924978 -0.5476972020241587 5.683470629358952 -0.5368448002764522 5.684767345740475 -0.525934147597544 C 5.686051398876085 -0.5149475154431558 5.686758007998048 -0.503459418750601 5.687236678693571 -0.4919333323203062 C 5.687388637644531 -0.48788109362804677 5.687535531297125 -0.48382885493578737 5.687677359651355 -0.4797766162435279 L 5.687852112444958 -0.47040834691686145 C 5.68795848371063 -0.46414763813732085 5.687897700130246 -0.4578641355151364 5.687798926812122 -0.45155783905030755 C 5.687367480844171 -0.42587838686739676 5.685352733132865 -0.40024998399057754 5.68176615645902 -0.3748185688156409 C 5.6750988793554 -0.3240655508704763 5.659999041885708 -0.27478307112883327 5.637090224876863 -0.22900635742224712 C 5.625416488816523 -0.20629859720604787 5.611137434087771 -0.18502790532260993 5.5945417186081405 -0.16562427897694787 C 5.5781693944434325 -0.14670344625866438 5.559486912968138 -0.12991244159347964 5.538932340504431 -0.11564498000629636 C 5.519514632144841 -0.10223306338473598 5.4987077661259205 -0.09095333729122623 5.476872304932481 -0.08200126826381376 C 5.4564700325497 -0.07354422273822231 5.435435008954548 -0.06670275914622437 5.413961299235155 -0.061539995517087 C 5.393814757853429 -0.0568102798959057 5.373406652070386 -0.053273619097601754 5.3528434091591555 -0.05094845663519432 L 5.344485666856372 -0.05000631113924392 C 5.340610713606898 -0.04948205275843298 5.33649262603589 -0.04917053690896567 5.332572085101129 -0.04885902105949824 C 5.324670219651224 -0.04825118525565908 5.31683673572925 -0.04751418434350452 5.3092311902337155 -0.04705070954307733 L 5.265117506770109 -0.04510563497079323 L 5.264714815550065 -0.04678478137889819 C 5.264676790059211 -0.047501016752040215 5.264676790059211 -0.04821876516183676 5.264714815550065 -0.048935000534978124 L 5.264813588868189 -0.05328102653242628 L 5.2650567231897245 -0.06181352162881437 C 5.265254269825973 -0.06741574162086289 5.265454349111403 -0.0729875698227192 5.265656961046016 -0.07852900623438391 C 5.266160595783514 -0.08964368568579512 5.267228215348085 -0.10072562748430891 5.268855696963718 -0.11173203701908435 C 5.269524316347941 -0.11724814693892144 5.270580431057111 -0.12244514306174403 5.271438999130034 -0.1276877268698543 C 5.271651741661377 -0.1288654087397922 5.2719100718780085 -0.1305825448856371 5.272092422619161 -0.1312891540075995 L 5.272669866632807 -0.13390284796410717 L 5.273824754660101 -0.1390998440869297 C 5.275427921592726 -0.145983584565405 5.277122263895928 -0.15277614967330488 5.2789989569402795 -0.15935597224986064 C 5.285946062657947 -0.18433223348692074 5.295212819492861 -0.20860437011023958 5.306678279857593 -0.23185558775274334 C 5.32485543507487 -0.2693100232513054 5.349595048993961 -0.30320540441858923 5.379724947583932 -0.3319357528548168 C 5.398688155054089 -0.3498786011936702 5.419843998667842 -0.3653516997990712 5.4426891389140915 -0.377986912943159 C 5.450363065937558 -0.38250009378666305 5.4566465685597425 -0.38519736516619835 5.460719068445463 -0.38724121305660675 Z" fill="#bd2949" transform="matrix(1,0,0,1,0,0)" fill-rule="nonzero"></path></g><g clip-path="url(#SvgjsClipPath1000390e4034-3477-4aa1-8183-a53fcd849c9a)"><path d=" M 5.275693849756906 0.14270043252032605 L 5.2860422543172625 0.12522515315995808 L 5.291847086243925 0.11557575977401591 C 5.294094792094849 0.11162536556318847 5.296586690746754 0.10781900306027925 5.299308270736047 0.10417883845203713 C 5.30510550471516 0.09626937505458377 5.311624543711332 0.08685551804262903 5.319571996846525 0.07665907243323145 C 5.339622804387864 0.05197429096203943 5.362393367924666 0.02962936925539783 5.387452060240233 0.010047866280036954 C 5.421663377668898 -0.016652384601011927 5.4599575127297655 -0.03765951161952896 5.500859025341473 -0.052164128242872754 C 5.551969959089992 -0.07004121014157999 5.606038464784043 -0.07793662546118135 5.660127201842357 -0.075421445687258 C 5.6906813691463904 -0.07375070327607841 5.720980954620009 -0.06892568525317877 5.750542777663391 -0.06102333508382429 C 5.766119963323954 -0.05693718084471744 5.7814670218453195 -0.05201932487497163 5.796517958276255 -0.04629091478827885 C 5.8041994832472685 -0.043472076247976554 5.8115998841590075 -0.03986305116268296 5.8192358214447335 -0.036595933717048945 L 5.830632742766713 -0.03149771091235021 C 5.834431716540706 -0.02981096655669735 5.838055937521095 -0.027637953557973605 5.841794127714704 -0.025700476933236738 L 5.864177681191071 -0.01354376085645892 C 5.871418525204302 -0.009030580012955536 5.878613781532245 -0.004304656638107862 5.885869821440572 0.0004212667367397005 C 5.8894712485783165 0.0028222181619026454 5.893186644929282 0.005109200373846878 5.896719690539095 0.007646914854874565 L 5.9070832909945485 0.015617161832711224 C 5.913967031473025 0.02104209638197352 5.9211850816436105 0.026193504819507774 5.927856079590743 0.032043924431457205 L 5.947701918586082 0.05004346217263611 L 5.952670976282465 0.05460223070142789 C 5.954266545267543 0.05618260379140916 5.955778536829591 0.057854152251965774 5.957343714024477 0.059480113027235326 L 5.966643601823211 0.06935744483961725 C 5.979176516802393 0.08274818804731665 5.990963534794974 0.09681803715531101 6.001951264078703 0.1115032598882969 C 6.046771961428043 0.17319220016656023 6.077185859315494 0.24414844187444573 6.090953621655812 0.31914756842720593 C 6.0979588833340985 0.35634359958662565 6.101423837550501 0.3941197414070121 6.101302026216168 0.4319694915672513 C 6.100987682904011 0.4676254726501641 6.098195037238149 0.5032164722771679 6.0929442839133845 0.5384851182424661 C 6.0915082718268145 0.5471239846045286 6.090376177642165 0.5557628509665888 6.0886514435487715 0.5642649542727853 C 6.086926709455379 0.5727670575789814 6.08522476920463 0.58122357319989 6.083522828953882 0.5896345011355106 C 6.081496709607752 0.5979669169464685 6.0794705902616215 0.6062613430196866 6.077444470915492 0.6145177793551648 C 6.075469004553016 0.6227615524447294 6.072885702386701 0.6308153768455949 6.070606318122305 0.6388919950891041 C 6.0613023015722405 0.6702475574887117 6.050014313274171 0.7009799177156937 6.036810647428863 0.7309031398952148 C 6.024188902501537 0.7590538469432058 6.01002249661237 0.7864861978279587 5.994376110373359 0.8130749426266866 C 5.9791346275921 0.8387636032864263 5.962882617786958 0.8626287565346513 5.9464482572406645 0.8849971141159216 C 5.915853333568348 0.9259165903238369 5.881809088492808 0.9641397899953741 5.844688945730487 0.999247451394988 C 5.791901254997544 1.0491589662582883 5.733784733880878 1.0931139009675515 5.671387360108473 1.1303196445452963 C 5.649497673222724 1.1433273307474485 5.632166754865768 1.1526804041790195 5.6203063587433615 1.1588043499026963 L 5.602170057946319 1.1679978664357598 L 5.6169024782418635 1.1540252408950127 C 5.6265518716278065 1.1449077038374291 5.640630868434225 1.1313073777265346 5.658242910850456 1.113528180464247 C 5.707357759215519 1.0640348990404664 5.752537906424513 1.0107865962208036 5.793372407991387 0.954267601910912 C 5.852248388003525 0.8736824266051151 5.898138948521778 0.7843727301685848 5.92937566910034 0.6895855011292669 C 5.937829282222394 0.6628946972736041 5.944907219075151 0.6357875432001081 5.950581540706768 0.6083710397888447 C 5.951903583580118 0.6013657321496011 5.953559936145579 0.5944136101431943 5.954669236487585 0.587309529185827 C 5.955778536829591 0.5802054482284598 5.957032198175009 0.573124161113737 5.958217477992495 0.5659744924710819 C 5.959159623488445 0.5588020299857832 5.960106834282761 0.5515941104119269 5.961059110375442 0.5443507337495139 C 5.962062039451776 0.537132683578927 5.962517916304655 0.5297930662475727 5.963338494639837 0.5224914386539579 C 5.966008319830748 0.49272335787889543 5.9670356003636735 0.4628307626183381 5.966415663396772 0.43294962680094173 C 5.965585182023019 0.40331680460400887 5.9624171311485945 0.37379575315188085 5.956941022804433 0.344661476293341 C 5.946754666258956 0.2883648436074209 5.925706946638327 0.23458941674932243 5.894972162603058 0.18633544528840928 C 5.886963925887481 0.17524244186835014 5.879776267507086 0.16359478827728724 5.870848679138203 0.15345912624827396 L 5.864527186778279 0.14558765258856 C 5.86346347412156 0.1442808056103062 5.862452947097678 0.14292837094676458 5.861358842650768 0.1416595137062513 L 5.857909374463983 0.1380276947783139 L 5.844286254510443 0.12341684164353661 C 5.839727485981651 0.11860734084566193 5.834621665229405 0.11441327379917299 5.82985015416927 0.10984690732283353 L 5.822662495788875 0.10311512579531801 C 5.820200760783328 0.10095730869168973 5.817571870931724 0.09903502796204955 5.815064548240889 0.09697598417654496 L 5.799868653144917 0.08481926809976725 L 5.783988942769626 0.07390861542085947 C 5.78132966112783 0.07214589158972629 5.778814740489447 0.07010964164686617 5.77604908758198 0.06854446445198104 L 5.767843304230155 0.06375015954920182 C 5.762342390205413 0.060642599002075914 5.757054218712015 0.05710195544471397 5.751469727264245 0.05428311690441168 C 5.740194373103034 0.04890377004043711 5.729276122476578 0.04276462842166473 5.717765231941379 0.038578159322724126 C 5.695617995745881 0.029376754275248107 5.672668496767034 0.022239849239822806 5.6492089512159005 0.017258318503075687 C 5.605962632808168 0.008621070024041555 5.561551653272151 0.007497880137055213 5.517924015534249 0.01393801542460571 C 5.480636326623561 0.019636027476324203 5.444366828277537 0.03068858962664367 5.410238304936643 0.046753550884357176 C 5.383542689562066 0.05933563237848072 5.3581409871954895 0.07449725757383929 5.334395592512646 0.09202212237525875 C 5.324632229913483 0.09951369865757276 5.316236497872959 0.10663297551003614 5.3086841380102605 0.11262015817784932 C 5.30517698604263 0.11533550231866685 5.301835511673347 0.11825834094692378 5.298677641089563 0.12137299375312882 L 5.290601022846054 0.12892535361582713 Z" fill="#bd2949" transform="matrix(1,0,0,1,0,0)" fill-rule="nonzero"></path></g><g clip-path="url(#SvgjsClipPath1000390e4034-3477-4aa1-8183-a53fcd849c9a)"><path d=" M 5.221026617149146 1.591401091494831 C 5.221026617149146 1.591401091494831 5.2305468454267725 1.5686072488508724 5.248561579063048 1.5279506315215992 C 5.266378766063075 1.4872636224021334 5.293093149641794 1.4288506016532165 5.322428825124568 1.3564877492061975 C 5.337016884416702 1.3203063229826884 5.352174789774933 1.2805994490969126 5.366162611210776 1.2378685920870387 C 5.369870409614193 1.2272314655198584 5.372871598895648 1.216275225155663 5.376359056820173 1.205273397106179 C 5.379724947583931 1.194248775214051 5.38259697175707 1.1829658231052915 5.385864089202704 1.1716296853636965 C 5.391539756021049 1.1488358427197385 5.397261010524683 1.1254417622194894 5.401181551459444 1.101538619233525 C 5.405484835813491 1.0774945076670688 5.408336692272857 1.0532131319409719 5.40972164450338 1.028826261199297 C 5.41092082150894 1.0043960841232937 5.410250247563385 0.9799099748992692 5.407715786350712 0.9555820468367113 C 5.404608916622368 0.9315517901183814 5.3991501995032465 0.9078846249865298 5.391418188860282 0.8849211346404424 C 5.382939031002923 0.861990023313826 5.371900345124403 0.8400885160974505 5.358511478029953 0.8196319713605973 L 5.34762361919369 0.8044360762646252 C 5.346711865487932 0.803174816971659 5.345868493310105 0.8018755679409535 5.344918749866607 0.8006371024906318 L 5.3418795708474125 0.797073665090626 L 5.335801212809024 0.7899239964479712 C 5.3277078392929065 0.7803452401504174 5.319131283600993 0.7711854178088475 5.3101049542017345 0.7624802099046446 C 5.291848462513345 0.7451269400798075 5.272095635921184 0.7294192604960301 5.251076499701431 0.715540089953187 C 5.207888063918456 0.6881050152901471 5.162499506093735 0.6642976239294547 5.115377156494399 0.6443625173236547 C 5.091960282151507 0.6338545558647903 5.068588995493902 0.623559336937269 5.045734369269559 0.6130513754784046 C 5.034296925560658 0.6077935957751981 5.0230114408027156 0.6024497059997815 5.0118779149957335 0.5970197061521536 C 5.000716530047741 0.5915263900749597 4.989137257984611 0.5856987643056546 4.978302584781183 0.5794912411589497 C 4.934690365855743 0.5548359013657351 4.8959256374659175 0.5249303798168619 4.868618613978456 0.48943276887267073 C 4.85547038153535 0.4727764701021322 4.8446031549383894 0.4544404207111623 4.836304543056872 0.43490989726832296 C 4.829097592916189 0.41770399780875167 4.824182708555862 0.3996257043482351 4.821686091974546 0.38113922247122545 C 4.820461638531903 0.37299997212518365 4.819771282083257 0.3647892989216145 4.819619450241493 0.35655986215348967 C 4.819535872818466 0.35459959168611 4.81944469744789 0.3526621150613737 4.819361120024862 0.35073983433173295 C 4.819361120024862 0.34894671871040805 4.819361120024862 0.3471738642825445 4.819361120024862 0.3454212710481428 C 4.819391511815054 0.3418755621924162 4.819419370956063 0.3383805063203419 4.81944469744789 0.3349361034319217 C 4.819627048189042 0.321153426579875 4.820204492202689 0.3084116685419024 4.8214885453382985 0.2969463656919915 C 4.822629902353298 0.2791247873831454 4.8274001775447575 0.26172427137310783 4.835506758564333 0.24581217869404481 C 4.8368086150703204 0.24346007135162773 4.838351711214793 0.24124982802918216 4.840111114778412 0.23921716022239303 C 4.8412525133026305 0.2376818428081835 4.842576713938025 0.2362913045687034 4.844054449555817 0.2350762788087407 L 4.847617886955822 0.2321738628454102 L 4.845110564264987 0.23591965098656686 C 4.844095976543921 0.2374371543632473 4.8432645504900025 0.2390694018310623 4.842633633364343 0.24078233741727817 C 4.84160807525914 0.24303821075964083 4.840816289109299 0.24539320171977796 4.84027067167692 0.24781043889916554 C 4.837166163898098 0.263949970441535 4.837166163898098 0.2805333080378941 4.84027067167692 0.29667283958026414 C 4.841790261186517 0.3073099661474439 4.844198810559229 0.3190791868992744 4.847184803945587 0.3320032956783989 C 4.8479395334020206 0.3352552172289368 4.848699328156819 0.3385780529565894 4.849464188209983 0.3419718028613562 C 4.849869412079209 0.34369906960393204 4.850277168597618 0.34544153224160346 4.850687457765209 0.347199190774371 L 4.8521082739566825 0.3520694751526301 C 4.853831686257575 0.35884823165163293 4.855986291051195 0.3655099955895046 4.8585589314249225 0.37201408746609366 C 4.86382957890814 0.38611553552447475 4.870832874379384 0.3995070411139853 4.879407699496596 0.4118805182503763 C 4.888917317175069 0.4254171882986183 4.900075950980972 0.43771669797626034 4.912625926176391 0.4484950274841222 C 4.942609606879785 0.4732147658002144 4.976752507142712 0.4924022987789589 5.013458288085714 0.505160520297002 C 5.023525568586796 0.5090430714940231 5.033699220353549 0.5123937663626847 5.0447162442981295 0.5160027914479783 C 5.055733268242709 0.5196118165332717 5.067183375197524 0.5231828518808248 5.078823430841038 0.52678427901857 C 5.102126335970712 0.5340099271367054 5.126462561966911 0.541402730100895 5.151763727301705 0.5495781216625286 C 5.2074129203667106 0.566461597297814 5.261068761493615 0.5893255785965494 5.311791698557387 0.6177697009057033 C 5.339985532527955 0.634143474790335 5.36643652466439 0.653349084480159 5.390734373580964 0.6750886172077111 C 5.403337266392948 0.6864945448261817 5.415261143689305 0.6986289927216016 5.426444727056498 0.7114296003297291 L 5.434939232415146 0.7212157567715345 L 5.439171289199374 0.7261392267826297 C 5.440523723862915 0.7278487649809267 5.441777385208333 0.7296494785497993 5.443084232186587 0.7314046044333842 L 5.458515663656547 0.7527700329383209 C 5.477805475345973 0.782064116823614 5.493151178991305 0.8137722695863645 5.504156534577299 0.8470757579039254 C 5.514032042912971 0.879158789425462 5.520151324329693 0.9122794000934709 5.522391608692466 0.9457730965522644 C 5.523896095404648 0.9770712447606993 5.522543122920911 1.0084413868413238 5.518349500596937 1.0394937795566719 C 5.514274145477648 1.0682851901280228 5.508126640020405 1.0967450171271027 5.499954869583263 1.1246515756744961 C 5.48528842450915 1.174632677509531 5.465912950732829 1.2231095226786228 5.442088901057802 1.2694304662013713 C 5.422021479988598 1.308860339300086 5.399880461808915 1.3472000611583066 5.3757588189638845 1.3842886392842757 C 5.331956651349743 1.4518495888809713 5.292181395936035 1.502657064134353 5.264646434022134 1.5376684064354733 C 5.236944317262177 1.5725429856807294 5.221026617149146 1.591401091494831 5.221026617149146 1.591401091494831 Z" fill="#de6c2c" transform="matrix(1,0,0,1,0,0)" fill-rule="nonzero"></path></g><g clip-path="url(#SvgjsClipPath1000390e4034-3477-4aa1-8183-a53fcd849c9a)"><path d=" M 5.507112136173466 1.1538276942587646 C 5.507112136173466 1.1538276942587646 5.511967224656629 1.1393915939175916 5.520598493071141 1.1137029332578505 C 5.532323941682209 1.0781277740505018 5.541752143879306 1.0418361747453964 5.548824868211909 1.005052283321649 C 5.549868319675166 0.9993588879590252 5.550929499682701 0.9935337948389034 5.552008408234515 0.9875770039612823 C 5.552763137690949 0.9816100824869305 5.553522932445747 0.9755317244485417 5.554287792498911 0.9693419298461159 C 5.556308846546676 0.9570484507134744 5.556567176763307 0.9441319398818984 5.55765368326267 0.93103307830917 C 5.558954075901783 0.9035448500217222 5.557615778477515 0.8759952596985816 5.553657162852429 0.8487625022595782 C 5.549504983526322 0.8193725029681984 5.542062943499804 0.7905422437969718 5.531471156012309 0.7628145195967575 C 5.530118721348767 0.7592054945114652 5.529055008692049 0.755512892003144 5.527505027392261 0.7519342587080426 L 5.522718320437029 0.7411831629276424 L 5.517999995009729 0.7303408917766663 L 5.515667425112499 0.7248703695421157 C 5.514816454987124 0.7230696559732437 5.513805927963242 0.7213145300896588 5.512894174257483 0.7195518062585256 C 5.511035209757409 0.7159807709109713 5.509168647309788 0.7123996049666881 5.507294486914618 0.7088083084256731 L 5.502659738910346 0.6995995959975143 C 5.500617246193183 0.6954274040536774 5.4983497201511655 0.6913691918979408 5.495867173802447 0.6874428799207359 L 5.467473643815623 0.639659387791452 L 5.449793219871459 0.6096095052391668 L 5.505311422604593 0.5929320103713374 C 5.514294438767434 0.5905122937587184 5.523096721691967 0.5874656426166824 5.531653506753461 0.5838144733137545 L 5.543757037197403 0.5786478689811241 L 5.549349126592721 0.5762393196084123 L 5.5518640472311045 0.5749628644203506 C 5.565400892846975 0.5683491900694146 5.57853072084573 0.560933057269345 5.5911834257919315 0.5527540637375872 C 5.603849204354425 0.5446470537038859 5.6161502814346145 0.5361525483452376 5.627653574022265 0.5271185887106817 C 5.639156866609916 0.5180846290761265 5.650189086449592 0.5088835145955155 5.6603247484786054 0.49935568837034094 C 5.67068075098651 0.48993423341083786 5.6798590716244775 0.48002650980826433 5.6886954846227855 0.4702631472091021 C 5.697023507217234 0.4607247979355964 5.704791512912548 0.45071163056805696 5.711960400014719 0.44027404823720206 C 5.718612033353929 0.43061007052586364 5.724619821487119 0.42051840782304795 5.729944741860802 0.4100646087864087 C 5.732224126125198 0.40499677777190213 5.734663067288102 0.40000492623287487 5.736676523388318 0.39502067264139584 C 5.738378463639067 0.3900060272597248 5.740680641746106 0.38509015519617795 5.74194949898662 0.3801514892899873 C 5.74758670406095 0.3621578826362548 5.750195389518005 0.34335275243205 5.749669013695374 0.3245041214485378 C 5.749365095793454 0.3202290096282038 5.749073841137448 0.31610079146046444 5.748795249727355 0.31211946694531967 C 5.748369764664668 0.3081305444826272 5.747549186329485 0.3043543645512784 5.746994536158482 0.300631370252765 C 5.746690618256563 0.2987622751559602 5.746391765653009 0.2969362350952611 5.74609797834782 0.2951532500706666 C 5.745642101494941 0.2934057221346301 5.745201420537158 0.29170378188388124 5.7447683375269225 0.2900322334233245 L 5.742245818940991 0.2803980359324785 C 5.739367923403099 0.270970431719473 5.735849484183326 0.26175039474529105 5.7317150636394825 0.25280229043819225 C 5.7288734312565355 0.2465035919209123 5.727376635589582 0.24316809294734676 5.727376635589582 0.24316809294734676 L 5.735027768770404 0.2504849164360575 C 5.742475944461572 0.25764895410352395 5.74929131353159 0.26544303152563464 5.755397866146556 0.2737802236181822 L 5.761476224184944 0.28276859556745026 L 5.764712949840386 0.28771485942118935 C 5.765655095336337 0.28949277914741756 5.766627632622479 0.2913086886113868 5.767607767856169 0.2931625878130949 C 5.769530048585809 0.2969615615870882 5.771771443112465 0.3008137209939169 5.773686125894558 0.305053375725693 C 5.775413392637134 0.30940446702150626 5.777201442960093 0.31391764786500975 5.779050276863436 0.3185929182562045 C 5.786598546255632 0.34075165169157473 5.789925665126042 0.3641291073642873 5.788859227147887 0.3875139004639858 C 5.788859227147886 0.39413931072582986 5.787734730910784 0.4006811435646461 5.78711169921185 0.4075952758333131 C 5.786184749610995 0.4143954388887602 5.78473354162933 0.42127158141968835 5.783358313123144 0.42830728084912284 C 5.779924037972502 0.4427258959069096 5.775350913697368 0.456849228043281 5.769682007536769 0.47054427126837806 C 5.763663316358871 0.4851118460184489 5.756599063823458 0.49922511546195225 5.748544517458272 0.5127736637400842 C 5.740011182202951 0.5269774003461383 5.730578067747016 0.5406207749264726 5.720302946422407 0.5536202297580577 C 5.709587141215739 0.5672672433206174 5.698004194394247 0.5802105011623355 5.685625913813399 0.5923697622527859 C 5.67273858849336 0.6051834162274226 5.659033498890805 0.6171474518545412 5.644596997054275 0.6281864869939928 C 5.629450541765471 0.6399465109173796 5.613425138838439 0.6505285094264963 5.59666154597403 0.6598395364789031 L 5.593440016213684 0.6616706418379679 L 5.593044922941189 0.6618985802644071 L 5.593044922941189 0.6618985802644071 L 5.593044922941189 0.6618985802644071 L 5.593044922941189 0.6619441679496947 L 5.5929993352559 0.6621341166383945 C 5.592965988486866 0.6622143677833296 5.592965988486866 0.6623045977625432 5.5929993352559 0.6623848489074791 C 5.593048576853535 0.6624861790885344 5.593131981853306 0.6625668936044411 5.593234871629888 0.6626127873339172 L 5.593318449052916 0.6626127873339172 C 5.593271799507591 0.6625959617741188 5.593220737594829 0.6625959617741188 5.593174088049505 0.6626127873339172 C 5.59312743850418 0.6626296128937159 5.593174088049505 0.6626735709143015 5.593052520888737 0.6625064160682457 L 5.592946149623065 0.6623468591697381 L 5.594420151447374 0.6654316258742201 L 5.600756839702394 0.6788192094537713 C 5.601782562621373 0.6810530060328788 5.602876667068283 0.6832412149266993 5.603796018721589 0.6855054032959991 L 5.606417310625644 0.6924271335122136 C 5.608134446771489 0.6970314897262933 5.609846517618968 0.7016206500452771 5.611553523168083 0.7061946144691644 L 5.616552972654658 0.7198709200555389 C 5.6181333457446385 0.7244296885843313 5.619235048139096 0.7292011996444654 5.620557091012445 0.7338207517536415 C 5.630985455174111 0.7693916425149838 5.636208774154966 0.8062850116614793 5.636064501957885 0.843352763605409 C 5.636039279418884 0.8763517668253711 5.6319097548741635 0.9092195153339466 5.623771022825235 0.9411991321284106 C 5.620118873270842 0.9553741538727503 5.61574949604236 0.9693546394563941 5.610679759200064 0.9830866169604215 L 5.603446513134381 1.0022410427288946 C 5.600802427387682 1.008319400767283 5.598013980637571 1.014238201907164 5.59537749283842 1.01998984820099 C 5.592741005039269 1.0257414944948162 5.590210888505789 1.0313867695229693 5.587460431493419 1.03666734306882 C 5.584709974481047 1.0419479166146708 5.581807558517717 1.0470157476291768 5.579102689190634 1.051992403273108 C 5.576397819863551 1.0569690589170397 5.573700548484016 1.0616721884492424 5.5711172463177006 1.066306936453514 L 5.56289626707078 1.0792918288130218 C 5.552578254300615 1.0961136846842634 5.542298231268189 1.1096152374770338 5.534168427391844 1.1206930450019974 C 5.526038623515499 1.1317708525269612 5.518812975397364 1.1397410995047983 5.514269402763668 1.1453255909525681 Z" fill="#de6c2c" transform="matrix(1,0,0,1,0,0)" fill-rule="nonzero"></path></g><g clip-path="url(#SvgjsClipPath1000390e4034-3477-4aa1-8183-a53fcd849c9a)"><path d=" M 5.494859408135413 0.4071169707065958 C 5.507691433782992 0.48608229211042664 5.465056047475822 0.5587150701199572 5.399630596812569 0.5693468391799703 C 5.3342051461493165 0.5799786082399834 5.270764939831853 0.5245833301980687 5.257932914184275 0.44561800879423785 C 5.2451008885366965 0.3666526873904067 5.287736274843866 0.29401990938087597 5.353161725507119 0.2833881403208629 C 5.418587176170371 0.27275637126084995 5.482027382487836 0.3281516493027645 5.494859408135413 0.4071169707065958 Z" fill="#de6c2c" transform="matrix(1,0,0,1,0,0)" fill-rule="nonzero"></path></g></g><g><path d=" M 0.15 1.0724999999999998 Q 0.12 1.0724999999999998 0.096 1.0635 L 0.096 1.0185 Q 0.096 0.7889999999999998 0.111 0.3524999999999998 L 0.117 0.20699999999999985 Q 0.0975 0.18149999999999988 0.07875 0.1267499999999998 Q 0.06 0.07199999999999984 0.06 0.0592499999999998 Q 0.06 0.046499999999999875 0.063 0.04349999999999987 Q 0.066 0.04049999999999987 0.13875 0.03524999999999989 Q 0.2115 0.029999999999999805 0.28875 0.029999999999999805 Q 0.366 0.029999999999999805 0.375 0.03749999999999987 Q 0.6405 0.6314999999999998 0.64575 0.6434999999999998 Q 0.651 0.6554999999999999 0.654 0.6554999999999999 L 0.66 0.6449999999999998 L 0.66 0.6029999999999999 Q 0.66 0.4754999999999998 0.65175 0.2849999999999998 Q 0.6435 0.0944999999999998 0.6345000000000001 0.04799999999999982 Q 0.6555 0.02849999999999986 0.71175 0.014249999999999874 Q 0.768 -2.220446049250313e-16 0.81375 -2.220446049250313e-16 Q 0.8595 -2.220446049250313e-16 0.8595 0.00749999999999984 Q 0.8595 0.03749999999999987 0.849 0.07799999999999985 Q 0.8385 0.11849999999999983 0.8385 0.11999999999999988 Q 0.8280000000000001 0.1874999999999999 0.8280000000000001 0.3307499999999999 Q 0.8280000000000001 0.47399999999999987 0.82875 0.5369999999999999 Q 0.8295 0.5999999999999999 0.83025 0.6577499999999998 Q 0.8310000000000001 0.7154999999999998 0.8325 0.7717499999999998 Q 0.834 0.8279999999999998 0.834 0.8744999999999998 Q 0.837 0.9734999999999998 0.837 1.0125 L 0.8385 1.0334999999999999 Q 0.8385 1.0379999999999998 0.8190000000000001 1.0454999999999999 Q 0.7605000000000001 1.0695 0.6615 1.0695 L 0.606 1.0635 Q 0.546 0.8939999999999999 0.4305 0.6359999999999999 Q 0.315 0.3779999999999999 0.3015 0.3577499999999998 Q 0.28800000000000003 0.3374999999999998 0.28500000000000003 0.3374999999999998 L 0.2805 0.34799999999999986 Q 0.2745 0.3899999999999998 0.2745 0.5287499999999998 Q 0.2745 0.6674999999999999 0.28125 0.8309999999999998 Q 0.28800000000000003 0.9944999999999998 0.297 1.0364999999999998 Q 0.2565 1.0724999999999998 0.15 1.0724999999999998 M 1.363464111328125 0.9704999999999998 L 1.361964111328125 0.9389999999999998 L 1.360464111328125 0.9359999999999998 Q 1.324464111328125 0.9914999999999998 1.269714111328125 1.0245 Q 1.214964111328125 1.0574999999999999 1.1624641113281249 1.0574999999999999 Q 1.004964111328125 1.0574999999999999 0.982464111328125 0.8129999999999998 Q 0.979464111328125 0.7739999999999998 0.979464111328125 0.6119999999999999 Q 0.979464111328125 0.44999999999999984 0.992964111328125 0.4199999999999998 Q 1.031964111328125 0.38849999999999985 1.118964111328125 0.38849999999999985 Q 1.153464111328125 0.38849999999999985 1.160964111328125 0.3959999999999998 Q 1.160964111328125 0.39749999999999985 1.159464111328125 0.4364999999999999 Q 1.151964111328125 0.5504999999999998 1.151964111328125 0.6119999999999999 Q 1.151964111328125 0.6734999999999999 1.153464111328125 0.7027499999999999 Q 1.154964111328125 0.7319999999999999 1.155714111328125 0.7402499999999999 Q 1.156464111328125 0.7484999999999998 1.160214111328125 0.7694999999999999 Q 1.163964111328125 0.7904999999999999 1.171464111328125 0.8054999999999999 Q 1.193964111328125 0.8489999999999999 1.241214111328125 0.8489999999999999 Q 1.288464111328125 0.8489999999999999 1.325214111328125 0.8017499999999999 Q 1.361964111328125 0.7544999999999998 1.360464111328125 0.7349999999999999 L 1.360464111328125 0.6839999999999998 Q 1.360464111328125 0.40949999999999986 1.369464111328125 0.38849999999999985 Q 1.376964111328125 0.3749999999999999 1.416714111328125 0.3599999999999999 Q 1.456464111328125 0.34499999999999986 1.495464111328125 0.34499999999999986 Q 1.534464111328125 0.34499999999999986 1.540464111328125 0.35099999999999987 L 1.5374641113281249 0.4214999999999999 Q 1.528464111328125 0.6359999999999999 1.528464111328125 0.7529999999999999 Q 1.528464111328125 0.8699999999999999 1.534464111328125 0.9014999999999999 Q 1.5449641113281252 0.9764999999999998 1.574964111328125 1.0214999999999999 Q 1.574964111328125 1.0364999999999998 1.5134641113281249 1.0695 Q 1.451964111328125 1.1024999999999998 1.4084641113281249 1.1024999999999998 Q 1.396464111328125 1.1024999999999998 1.381464111328125 1.0574999999999999 Q 1.366464111328125 1.0125 1.363464111328125 0.9704999999999998 M 1.87041943359375 0.04499999999999982 Q 1.86741943359375 0.07949999999999979 1.86291943359375 0.23399999999999987 Q 1.97541943359375 0.23399999999999987 1.97541943359375 0.23849999999999982 Q 1.97541943359375 0.28949999999999987 1.96041943359375 0.3292499999999998 Q 1.94541943359375 0.3689999999999999 1.93191943359375 0.3689999999999999 L 1.86141943359375 0.3689999999999999 Q 1.85841943359375 0.5909999999999999 1.85841943359375 0.7297499999999999 Q 1.85841943359375 0.8684999999999998 1.86291943359375 0.9149999999999998 Q 1.87191943359375 0.9929999999999999 1.9244194335937501 1.0424999999999998 Q 1.9244194335937501 1.059 1.86666943359375 1.0904999999999998 Q 1.80891943359375 1.1219999999999999 1.75791943359375 1.1219999999999999 Q 1.75341943359375 1.1219999999999999 1.74066943359375 1.1069999999999998 Q 1.72791943359375 1.0919999999999999 1.71366943359375 1.0574999999999999 Q 1.69941943359375 1.023 1.6956694335937499 0.9899999999999999 Q 1.69191943359375 0.9569999999999999 1.69191943359375 0.7544999999999998 Q 1.69191943359375 0.5519999999999998 1.69641943359375 0.3719999999999999 L 1.61241943359375 0.37349999999999983 Q 1.60491943359375 0.3659999999999999 1.60491943359375 0.3082499999999998 Q 1.60491943359375 0.25049999999999983 1.61841943359375 0.23849999999999982 Q 1.65141943359375 0.23699999999999988 1.69791943359375 0.23549999999999982 Q 1.69791943359375 0.14849999999999985 1.69341943359375 0.12299999999999989 Q 1.68891943359375 0.09749999999999981 1.68891943359375 0.09299999999999986 Q 1.68891943359375 0.07799999999999985 1.74066943359375 0.058499999999999885 Q 1.79241943359375 0.03899999999999981 1.83141943359375 0.03899999999999981 Q 1.87041943359375 0.03899999999999981 1.87041943359375 0.04499999999999982 M 2.030911376953125 0.8249999999999998 L 2.027911376953125 0.4844999999999998 Q 2.027911376953125 0.3959999999999998 2.033911376953125 0.3899999999999998 Q 2.050411376953125 0.37349999999999983 2.090911376953125 0.3607499999999998 Q 2.131411376953125 0.34799999999999986 2.166661376953125 0.34799999999999986 Q 2.201911376953125 0.34799999999999986 2.201911376953125 0.3554999999999998 Q 2.197411376953125 0.3959999999999998 2.197411376953125 0.44774999999999987 Q 2.197411376953125 0.49949999999999983 2.200411376953125 0.49949999999999983 Q 2.203411376953125 0.49949999999999983 2.206411376953125 0.4957499999999998 Q 2.209411376953125 0.4919999999999999 2.216161376953125 0.4837499999999998 Q 2.222911376953125 0.4754999999999998 2.244661376953125 0.4544999999999998 Q 2.266411376953125 0.4334999999999999 2.291911376953125 0.41849999999999987 Q 2.356411376953125 0.37649999999999983 2.429911376953125 0.37649999999999983 Q 2.441911376953125 0.3959999999999998 2.441911376953125 0.4364999999999999 Q 2.441911376953125 0.5219999999999998 2.420911376953125 0.5579999999999998 L 2.414911376953125 0.5699999999999998 L 2.395411376953125 0.5669999999999998 Q 2.2874113769531252 0.5669999999999998 2.225911376953125 0.6554999999999999 Q 2.201911376953125 0.6914999999999998 2.201911376953125 0.7094999999999998 L 2.201911376953125 0.8414999999999999 Q 2.201911376953125 1.0214999999999999 2.197411376953125 1.0259999999999998 Q 2.155411376953125 1.0664999999999998 2.032411376953125 1.0664999999999998 Q 2.020411376953125 1.0664999999999998 2.020411376953125 1.0619999999999998 Q 2.030911376953125 1.0034999999999998 2.030911376953125 0.8249999999999998 M 2.69089453125 0.1589999999999998 Q 2.71639453125 0.18599999999999983 2.71639453125 0.22949999999999982 Q 2.71639453125 0.2729999999999998 2.68264453125 0.30374999999999985 Q 2.64889453125 0.3344999999999998 2.60764453125 0.3344999999999998 Q 2.56639453125 0.3344999999999998 2.5416445312500002 0.3082499999999998 Q 2.51689453125 0.2819999999999998 2.51689453125 0.23849999999999982 Q 2.51689453125 0.19499999999999984 2.54989453125 0.16349999999999987 Q 2.58289453125 0.13199999999999978 2.62414453125 0.13199999999999978 Q 2.66539453125 0.13199999999999978 2.69089453125 0.1589999999999998 M 2.69989453125 0.5054999999999998 L 2.69689453125 0.7484999999999998 Q 2.69689453125 0.8654999999999998 2.70364453125 0.9202499999999999 Q 2.71039453125 0.9749999999999999 2.74189453125 1.023 Q 2.74189453125 1.0379999999999998 2.68039453125 1.071 Q 2.61889453125 1.1039999999999999 2.57539453125 1.1039999999999999 Q 2.56189453125 1.1039999999999999 2.54839453125 1.059 Q 2.53489453125 1.0139999999999998 2.53114453125 0.9734999999999998 Q 2.52739453125 0.9329999999999998 2.52739453125 0.7004999999999999 Q 2.52739453125 0.46799999999999986 2.53789453125 0.44699999999999984 Q 2.57239453125 0.4199999999999998 2.65939453125 0.4199999999999998 Q 2.69389453125 0.4199999999999998 2.70139453125 0.4289999999999998 L 2.69989453125 0.5054999999999998 M 2.9548505859375 1.077 L 2.9083505859375 1.0724999999999998 Q 2.9053505859375 1.0574999999999999 2.9053505859375 0.8677499999999998 Q 2.9053505859375 0.6779999999999998 2.9068505859375 0.6014999999999999 Q 2.8813505859375 0.5774999999999999 2.8566005859375 0.5272499999999999 Q 2.8318505859375 0.47699999999999987 2.8318505859375 0.44099999999999984 Q 2.8318505859375 0.4394999999999999 2.9098505859375 0.4364999999999999 Q 2.9113505859375 0.37349999999999983 2.9113505859375 0.2909999999999998 Q 2.9113505859375 0.2084999999999998 2.9098505859375 0.20699999999999985 Q 2.8933505859375 0.1904999999999999 2.8671005859375 0.12824999999999986 Q 2.8408505859375 0.06599999999999984 2.8408505859375 0.04799999999999982 Q 2.8573505859375 0.03149999999999986 3.3613505859375 0.03149999999999986 Q 3.4873505859375 0.03149999999999986 3.4873505859375 0.03749999999999987 Q 3.4873505859375 0.06899999999999984 3.4731005859375 0.10649999999999982 Q 3.4588505859375003 0.1439999999999998 3.4431005859375 0.16574999999999984 Q 3.4273505859375 0.1874999999999999 3.4228505859375 0.18599999999999983 Q 3.4183505859375 0.1844999999999999 3.3688505859375 0.1844999999999999 Q 3.3193505859375 0.1844999999999999 3.2158505859375 0.1912499999999998 Q 3.1123505859375 0.19799999999999984 3.1033505859375 0.20624999999999982 Q 3.0943505859375 0.2144999999999998 3.0943505859375 0.3689999999999999 L 3.0958505859375 0.43199999999999983 Q 3.2368505859375 0.4289999999999998 3.3118505859375 0.4289999999999998 Q 3.3868505859375 0.4289999999999998 3.3868505859375 0.4334999999999999 Q 3.3868505859375 0.4919999999999999 3.3508505859374997 0.5564999999999998 Q 3.3388505859375 0.5789999999999998 3.3358505859375 0.5789999999999998 L 3.3208505859375 0.5789999999999998 Q 3.2728505859375 0.5789999999999998 3.1873505859375 0.5864999999999998 Q 3.1018505859375 0.5939999999999999 3.0973505859375 0.5984999999999998 Q 3.0928505859375 0.6029999999999999 3.0928505859375 0.7859999999999998 Q 3.0928505859375 0.9689999999999999 3.1123505859375 1.035 Q 3.1123505859375 1.0544999999999998 3.0546005859375 1.0657499999999998 Q 2.9968505859375 1.077 2.9548505859375 1.077 M 3.68534033203125 0.1589999999999998 Q 3.71084033203125 0.18599999999999983 3.71084033203125 0.22949999999999982 Q 3.71084033203125 0.2729999999999998 3.67709033203125 0.30374999999999985 Q 3.64334033203125 0.3344999999999998 3.60209033203125 0.3344999999999998 Q 3.56084033203125 0.3344999999999998 3.5360903320312502 0.3082499999999998 Q 3.51134033203125 0.2819999999999998 3.51134033203125 0.23849999999999982 Q 3.51134033203125 0.19499999999999984 3.54434033203125 0.16349999999999987 Q 3.57734033203125 0.13199999999999978 3.61859033203125 0.13199999999999978 Q 3.65984033203125 0.13199999999999978 3.68534033203125 0.1589999999999998 M 3.69434033203125 0.5054999999999998 L 3.69134033203125 0.7484999999999998 Q 3.69134033203125 0.8654999999999998 3.69809033203125 0.9202499999999999 Q 3.70484033203125 0.9749999999999999 3.73634033203125 1.023 Q 3.73634033203125 1.0379999999999998 3.67484033203125 1.071 Q 3.61334033203125 1.1039999999999999 3.56984033203125 1.1039999999999999 Q 3.55634033203125 1.1039999999999999 3.54284033203125 1.059 Q 3.52934033203125 1.0139999999999998 3.52559033203125 0.9734999999999998 Q 3.52184033203125 0.9329999999999998 3.52184033203125 0.7004999999999999 Q 3.52184033203125 0.46799999999999986 3.53234033203125 0.44699999999999984 Q 3.56684033203125 0.4199999999999998 3.65384033203125 0.4199999999999998 Q 3.68834033203125 0.4199999999999998 3.69584033203125 0.4289999999999998 L 3.69434033203125 0.5054999999999998 M 4.03179638671875 0.04499999999999982 Q 4.02879638671875 0.07949999999999979 4.02429638671875 0.23399999999999987 Q 4.13679638671875 0.23399999999999987 4.13679638671875 0.23849999999999982 Q 4.13679638671875 0.28949999999999987 4.12179638671875 0.3292499999999998 Q 4.1067963867187505 0.3689999999999999 4.09329638671875 0.3689999999999999 L 4.02279638671875 0.3689999999999999 Q 4.01979638671875 0.5909999999999999 4.01979638671875 0.7297499999999999 Q 4.01979638671875 0.8684999999999998 4.02429638671875 0.9149999999999998 Q 4.03329638671875 0.9929999999999999 4.08579638671875 1.0424999999999998 Q 4.08579638671875 1.059 4.02804638671875 1.0904999999999998 Q 3.97029638671875 1.1219999999999999 3.91929638671875 1.1219999999999999 Q 3.91479638671875 1.1219999999999999 3.90204638671875 1.1069999999999998 Q 3.88929638671875 1.0919999999999999 3.87504638671875 1.0574999999999999 Q 3.86079638671875 1.023 3.85704638671875 0.9899999999999999 Q 3.85329638671875 0.9569999999999999 3.85329638671875 0.7544999999999998 Q 3.85329638671875 0.5519999999999998 3.85779638671875 0.3719999999999999 L 3.77379638671875 0.37349999999999983 Q 3.76629638671875 0.3659999999999999 3.76629638671875 0.3082499999999998 Q 3.76629638671875 0.25049999999999983 3.77979638671875 0.23849999999999982 Q 3.81279638671875 0.23699999999999988 3.85929638671875 0.23549999999999982 Q 3.85929638671875 0.14849999999999985 3.85479638671875 0.12299999999999989 Q 3.85029638671875 0.09749999999999981 3.85029638671875 0.09299999999999986 Q 3.85029638671875 0.07799999999999985 3.90204638671875 0.058499999999999885 Q 3.95379638671875 0.03899999999999981 3.99279638671875 0.03899999999999981 Q 4.03179638671875 0.03899999999999981 4.03179638671875 0.04499999999999982" fill="#002027" fill-rule="nonzero"></path></g><g></g></g><defs><clipPath id="SvgjsClipPath1001"><path d=" M 4.514288330078125 -0.5639010914948308 h 1.5870136961380432 v 2.1553021829896615 h -1.5870136961380432 Z"></path></clipPath><clipPath id="SvgjsClipPath1000390e4034-3477-4aa1-8183-a53fcd849c9a"><path d=" M 4.514288330078125 -0.5639010914948308 L 6.101302026216168 -0.5639010914948308 L 6.101302026216168 1.5914010914948307 L 4.514288330078125 1.5914010914948307 Z"></path></clipPath></defs></svg>